<svg id="visual" viewBox="0 0 900 600" width="900" height="600" xmlns="http://www.w3.org/2000/svg" xmlns:xlink="http://www.w3.org/1999/xlink" version="1.1"><rect x="0" y="0" width="900" height="600" fill="#fff"></rect><path d="M0 495L13.7 495.5C27.3 496 54.7 497 82 492.8C109.3 488.7 136.7 479.3 163.8 474.3C191 469.3 218 468.7 245.2 471.3C272.3 474 299.7 480 327 481.8C354.3 483.7 381.7 481.3 409 485.5C436.3 489.7 463.7 500.3 491 500.3C518.3 500.3 545.7 489.7 573 489.7C600.3 489.7 627.7 500.3 654.8 506.2C682 512 709 513 736.2 515.7C763.3 518.3 790.7 522.7 818 524.3C845.3 526 872.7 525 886.3 524.5L900 524L900 601L886.3 601C872.7 601 845.3 601 818 601C790.7 601 763.3 601 736.2 601C709 601 682 601 654.8 601C627.7 601 600.3 601 573 601C545.7 601 518.3 601 491 601C463.7 601 436.3 601 409 601C381.7 601 354.3 601 327 601C299.7 601 272.3 601 245.2 601C218 601 191 601 163.8 601C136.7 601 109.3 601 82 601C54.7 601 27.3 601 13.7 601L0 601Z" fill="#679509"></path><path d="M0 528L13.7 526.7C27.3 525.3 54.7 522.7 82 525.3C109.3 528 136.7 536 163.8 536.5C191 537 218 530 245.2 528C272.3 526 299.7 529 327 527.5C354.3 526 381.7 520 409 518C436.3 516 463.7 518 491 522.3C518.3 526.7 545.7 533.3 573 537C600.3 540.7 627.7 541.3 654.8 534C682 526.7 709 511.3 736.2 503.5C763.3 495.7 790.7 495.3 818 496.2C845.3 497 872.7 499 886.3 500L900 501L900 601L886.3 601C872.7 601 845.3 601 818 601C790.7 601 763.3 601 736.2 601C709 601 682 601 654.8 601C627.7 601 600.3 601 573 601C545.7 601 518.3 601 491 601C463.7 601 436.3 601 409 601C381.7 601 354.3 601 327 601C299.7 601 272.3 601 245.2 601C218 601 191 601 163.8 601C136.7 601 109.3 601 82 601C54.7 601 27.3 601 13.7 601L0 601Z" fill="#9db765"></path><path d="M0 538L13.7 541C27.3 544 54.7 550 82 551.2C109.3 552.3 136.7 548.7 163.8 545.7C191 542.7 218 540.3 245.2 539.5C272.3 538.7 299.7 539.3 327 537.2C354.3 535 381.7 530 409 526.8C436.3 523.7 463.7 522.3 491 524.3C518.3 526.3 545.7 531.7 573 533.5C600.3 535.3 627.7 533.7 654.8 537C682 540.3 709 548.7 736.2 550C763.3 551.3 790.7 545.7 818 546.2C845.3 546.7 872.7 553.3 886.3 556.7L900 560L900 601L886.3 601C872.7 601 845.3 601 818 601C790.7 601 763.3 601 736.2 601C709 601 682 601 654.8 601C627.7 601 600.3 601 573 601C545.7 601 518.3 601 491 601C463.7 601 436.3 601 409 601C381.7 601 354.3 601 327 601C299.7 601 272.3 601 245.2 601C218 601 191 601 163.8 601C136.7 601 109.3 601 82 601C54.7 601 27.3 601 13.7 601L0 601Z" fill="#cfdbb1"></path><path d="M0 572L13.7 571C27.3 570 54.7 568 82 565.2C109.3 562.3 136.7 558.7 163.8 557.8C191 557 218 559 245.2 559.5C272.3 560 299.7 559 327 561.3C354.3 563.7 381.7 569.3 409 570.2C436.3 571 463.7 567 491 563.7C518.3 560.3 545.7 557.7 573 557.7C600.3 557.7 627.7 560.3 654.8 560C682 559.7 709 556.3 736.2 556.3C763.3 556.3 790.7 559.7 818 561.8C845.3 564 872.7 565 886.3 565.5L900 566L900 601L886.3 601C872.7 601 845.3 601 818 601C790.7 601 763.3 601 736.2 601C709 601 682 601 654.8 601C627.7 601 600.3 601 573 601C545.7 601 518.3 601 491 601C463.7 601 436.3 601 409 601C381.7 601 354.3 601 327 601C299.7 601 272.3 601 245.2 601C218 601 191 601 163.8 601C136.7 601 109.3 601 82 601C54.7 601 27.3 601 13.7 601L0 601Z" fill="#ffffff"></path></svg>